<?xml version="1.0" standalone="no"?>
<!DOCTYPE svg PUBLIC "-//W3C//DTD SVG 20010904//EN"
 "http://www.w3.org/TR/2001/REC-SVG-20010904/DTD/svg10.dtd">
<svg version="1.0" xmlns="http://www.w3.org/2000/svg"
 width="410.000000pt" height="245.000000pt" viewBox="0 0 410.000000 245.000000"
 preserveAspectRatio="xMidYMid meet">

<g transform="translate(0.000000,245.000000) scale(0.100000,-0.100000)"
fill="#000000" stroke="none">
<path d="M0 1205 l0 -1205 2050 0 2050 0 0 1205 0 1205 -2050 0 -2050 0 0
-1205z m2062 738 c22 -19 23 -37 4 -56 -10 -10 -15 -45 -18 -116 l-3 -103 30
6 c38 8 54 24 32 31 -9 3 -24 7 -32 10 -22 7 -18 33 5 40 32 10 70 -20 70 -54
0 -39 -14 -48 -95 -61 -93 -15 -111 -35 -48 -54 18 -6 20 -3 16 12 -2 11 0 23
6 26 7 5 11 -4 11 -22 0 -21 6 -31 20 -35 30 -8 24 -40 -10 -60 -16 -10 -30
-24 -30 -30 0 -7 4 -6 11 3 9 13 10 13 6 -1 -3 -9 0 -22 6 -29 10 -10 7 -10
-10 -1 -32 16 -29 47 6 67 17 10 28 21 25 26 -9 14 -24 9 -24 -8 0 -8 -4 -13
-10 -9 -5 3 -7 11 -4 18 3 8 -8 17 -27 22 -63 19 -64 69 -3 90 l29 10 -8 105
c-4 58 -12 109 -17 114 -16 16 -11 54 8 65 24 14 33 13 54 -6z m-115 -43 c18
-16 38 -30 43 -30 6 0 10 -18 10 -40 0 -49 -16 -58 -61 -36 -18 9 -42 16 -55
16 -13 0 -25 4 -28 9 -3 5 -27 12 -53 15 -98 14 -107 26 -35 45 26 7 63 21 82
31 49 25 58 24 97 -10z m322 -9 c73 -26 81 -30 63 -40 -11 -6 -29 -11 -40 -11
-18 0 -53 -10 -167 -45 -50 -16 -65 -10 -65 27 0 23 11 40 43 69 47 44 43 44
166 0z m-271 -143 c15 -15 -3 -38 -29 -38 -27 0 -24 -26 4 -34 l22 -7 -23 -11
c-18 -9 -26 -8 -42 7 -27 25 -25 50 6 74 30 24 45 26 62 9z m1361 -575 c37
-28 38 -43 2 -43 -17 0 -31 4 -31 8 0 5 -16 17 -35 28 -34 18 -35 18 -62 -2
-51 -38 -41 -129 19 -179 39 -33 61 -31 91 5 28 33 47 39 47 15 0 -18 -52 -52
-92 -60 -40 -9 -113 26 -132 64 -34 64 -11 137 52 171 44 24 103 21 141 -7z
m-3117 -82 c-3 -62 0 -106 7 -120 11 -20 10 -21 -30 -21 -36 0 -40 2 -33 18
11 22 11 182 0 205 -7 14 -3 17 26 17 l34 0 -4 -99z m408 -20 l0 -118 -52 -6
c-59 -7 -91 5 -121 45 -24 32 -17 69 19 105 22 22 32 25 70 20 39 -4 44 -2 44
15 0 11 -5 28 -10 39 -10 17 -7 19 20 19 l30 0 0 -119z m1090 0 l0 -118 -52
-6 c-61 -8 -109 11 -127 49 -18 40 -13 63 19 96 28 27 36 30 76 25 43 -4 46
-3 41 17 -2 11 -8 29 -12 39 -6 14 -2 17 24 17 l31 0 0 -119z m374 102 c-4
-10 -9 -35 -12 -55 l-4 -38 52 0 53 0 -6 55 -6 55 32 0 32 0 0 -120 0 -120
-32 0 -32 0 6 56 6 55 -49 -3 c-49 -3 -49 -3 -48 -38 0 -19 4 -43 8 -52 7 -16
2 -18 -33 -18 -38 0 -41 2 -31 19 5 11 10 56 10 101 0 45 -5 90 -10 101 -10
17 -7 19 31 19 35 0 40 -2 33 -17z m576 -77 c0 -52 4 -106 10 -120 9 -25 8
-26 -23 -26 l-32 0 0 120 c0 118 0 120 23 120 21 0 22 -3 22 -94z m98 58 c2
-16 9 -32 15 -36 9 -6 9 -10 0 -16 -16 -10 -20 -109 -5 -124 18 -18 15 -28 -7
-28 -31 0 -51 38 -51 96 0 32 -5 55 -12 58 -10 5 -10 7 0 12 6 3 12 16 12 28
0 25 19 48 35 43 5 -2 12 -17 13 -33z m92 -3 l0 -39 38 5 c48 6 77 -23 85 -87
2 -25 8 -53 12 -62 6 -16 1 -18 -36 -18 -33 0 -40 3 -31 12 17 17 15 89 -4
116 -46 66 -85 -20 -49 -110 6 -15 1 -18 -34 -18 -38 0 -41 2 -31 19 5 11 10
56 10 101 0 45 -5 90 -10 101 -10 17 -7 19 20 19 28 0 30 -2 30 -39z m-1689
18 c11 -5 24 -21 29 -35 7 -18 17 -24 38 -24 37 0 59 -25 67 -75 3 -22 8 -50
11 -62 4 -20 0 -23 -30 -23 l-35 0 6 55 c6 57 -5 85 -34 85 -13 0 -15 -13 -11
-70 l4 -70 -31 0 -30 0 0 85 c0 74 2 85 18 85 24 0 21 16 -5 34 -31 22 -55 20
-61 -4 -5 -21 -31 -27 -42 -10 -4 6 -4 17 -1 25 6 18 77 20 107 4z m-861 -59
c0 -5 12 -7 28 -4 41 8 64 -15 72 -72 4 -27 11 -57 15 -66 6 -16 1 -18 -34
-18 -38 0 -41 2 -31 19 15 29 12 97 -5 111 -8 7 -22 9 -31 6 -13 -5 -15 -16
-11 -54 2 -26 8 -55 12 -64 6 -15 2 -18 -26 -18 l-34 0 0 85 c0 81 1 85 23 85
12 0 22 -4 22 -10z m490 -5 c60 -31 56 -125 -7 -152 -96 -40 -176 66 -104 138
33 33 67 37 111 14z m222 -7 c29 -29 7 -36 -38 -12 -26 14 -38 16 -52 8 -26
-17 -27 -75 -2 -107 24 -30 67 -37 76 -12 4 8 14 15 23 15 12 -1 11 -5 -8 -20
-35 -30 -65 -34 -104 -15 -68 32 -69 128 -2 155 38 16 84 11 107 -12z m88 -44
c0 -36 5 -74 10 -85 10 -17 7 -19 -22 -19 l-33 0 0 85 c0 81 1 85 23 85 21 0
22 -4 22 -66z m374 41 c14 -13 26 -33 26 -45 0 -18 -6 -20 -65 -20 -69 0 -75
-5 -49 -45 20 -31 64 -34 71 -5 3 12 14 20 27 20 19 -1 18 -3 -12 -30 -40 -37
-71 -38 -111 -4 -25 21 -31 33 -31 65 0 80 85 118 144 64z m381 0 c21 -20 25
-34 25 -85 l0 -60 -52 0 c-34 0 -58 6 -70 17 -22 20 -24 66 -3 83 11 9 13 16
6 23 -15 15 16 47 46 47 13 0 35 -11 48 -25z m537 5 c14 -11 28 -31 30 -45 5
-25 5 -25 -63 -25 -38 0 -69 -4 -69 -9 0 -18 42 -61 60 -61 11 0 27 11 36 25
9 14 20 22 25 20 14 -9 -2 -35 -33 -51 -88 -46 -172 69 -102 140 33 32 80 35
116 6z m166 4 c19 -13 22 -24 22 -85 l0 -69 -48 0 c-52 0 -76 13 -86 46 -9 31
28 74 65 74 31 0 39 17 14 27 -9 3 -24 -2 -34 -11 -21 -19 -31 -20 -31 -3 0
36 58 49 98 21z m942 -4 c16 -16 20 -33 20 -85 l0 -65 -50 0 c-55 0 -90 23
-90 60 0 29 36 60 70 60 32 0 41 17 15 27 -9 3 -24 -2 -34 -11 -21 -19 -31
-20 -31 -3 0 39 67 50 100 17z m170 -1 c0 -15 -5 -17 -31 -12 l-31 6 4 -72 4
-71 -39 0 c-34 0 -37 2 -27 19 13 25 13 118 0 126 -22 14 3 23 60 23 52 0 60
-2 60 -19z m161 -8 c48 -49 40 -61 -41 -61 -38 0 -70 -4 -70 -9 0 -18 42 -61
60 -61 10 0 25 8 32 18 20 27 38 36 38 17 0 -8 -15 -24 -32 -36 -41 -25 -84
-19 -115 17 -30 33 -29 75 3 113 35 42 84 43 125 2z m-1153 -188 c-423 -2
-1113 -2 -1535 0 -423 1 -77 2 767 2 844 0 1190 -1 768 -2z m789 -135 c-2 -24
-4 -7 -4 37 0 44 2 63 4 43 2 -21 2 -57 0 -80z m-3110 -31 c-2 -23 -3 -1 -3
48 0 50 1 68 3 42 2 -26 2 -67 0 -90z m177 78 c3 -8 3 -22 0 -30 -4 -10 0 -15
12 -15 16 0 17 -2 4 -10 -8 -5 -15 -15 -15 -21 0 -7 -6 -14 -12 -16 -9 -3 -13
10 -13 46 0 28 -4 51 -10 51 -5 0 -10 -22 -10 -50 0 -38 -4 -50 -15 -50 -11 0
-15 12 -15 51 0 41 -3 50 -15 46 -8 -4 -17 -2 -20 3 -4 6 16 10 48 10 40 0 56
-4 61 -15z m146 5 c0 -6 -11 -8 -25 -4 -19 5 -25 2 -25 -10 0 -9 6 -16 14 -16
8 0 18 -5 21 -11 4 -6 0 -9 -11 -7 -11 2 -20 -4 -22 -16 -3 -15 1 -18 22 -14
18 4 26 1 26 -8 0 -9 -12 -14 -35 -14 -31 0 -35 3 -36 28 -1 27 -1 27 -8 3
-13 -46 -28 -34 -30 24 l-1 55 55 0 c31 0 55 -5 55 -10z m170 -45 c0 -40 -4
-55 -14 -55 -10 0 -12 12 -8 48 4 49 4 49 -27 50 -24 0 -31 -4 -31 -19 0 -10
6 -19 13 -20 10 0 10 -2 0 -6 -7 -2 -13 -16 -13 -29 0 -13 -6 -24 -13 -24 -9
0 -13 16 -13 55 l1 55 53 0 52 0 0 -55z m87 39 c3 -9 1 -25 -5 -35 -10 -15 -8
-20 7 -29 22 -11 61 -13 61 -3 0 4 -12 17 -27 29 -17 14 -24 26 -20 37 7 19
52 23 62 7 4 -7 -2 -9 -19 -4 -33 8 -34 -9 -1 -26 30 -16 33 -45 5 -60 -18
-10 -43 -3 -102 28 -5 2 -8 -6 -8 -18 0 -12 -5 -20 -11 -18 -6 2 -12 27 -13
56 l-1 52 33 0 c21 0 35 -6 39 -16z m188 6 c-3 -5 -12 -7 -20 -3 -12 4 -15 -5
-15 -46 0 -36 -4 -51 -14 -51 -10 0 -12 12 -8 52 5 48 4 51 -17 45 -11 -3 -21
-1 -21 4 0 5 23 9 51 9 29 0 48 -4 44 -10z m85 -16 c0 -19 4 -25 18 -22 11 3
16 12 15 26 -2 14 3 22 12 22 11 0 15 -13 15 -55 0 -44 -3 -55 -16 -55 -12 0
-15 6 -10 25 5 20 3 25 -14 25 -15 0 -20 -7 -20 -26 0 -49 -25 -19 -28 34 -2
42 0 52 12 52 10 0 16 -9 16 -26z m150 -20 c11 -26 20 -50 20 -55 0 -18 -22
-9 -27 11 -8 28 -49 27 -58 -2 -3 -13 -8 -18 -11 -12 -6 13 34 104 46 104 5 0
18 -21 30 -46z m105 16 c0 -17 -6 -25 -20 -27 -11 -2 -14 0 -7 3 17 8 15 44
-3 44 -11 0 -15 -12 -15 -50 0 -34 -4 -50 -13 -50 -9 0 -13 16 -13 55 l1 56
35 -3 c30 -3 35 -7 35 -28z m80 1 c0 -13 -7 -27 -15 -29 -13 -4 -13 -3 -2 11
15 18 8 37 -14 37 -11 0 -14 -11 -12 -47 2 -30 -1 -48 -9 -50 -10 -4 -13 11
-13 52 l0 56 33 -3 c26 -2 32 -7 32 -27z m45 -26 c0 -37 -4 -55 -12 -55 -9 0
-13 18 -13 55 0 37 4 55 13 55 8 0 12 -18 12 -55z m66 15 c15 -22 29 -40 32
-40 2 0 2 18 -1 40 -3 22 -1 40 4 40 12 0 12 -97 -1 -105 -5 -3 -22 13 -37 37
l-28 42 -5 -45 -6 -44 -4 58 c-6 70 8 75 46 17z m134 30 c0 -6 -11 -8 -25 -4
-21 5 -25 3 -25 -15 0 -12 6 -21 13 -22 10 0 10 -2 0 -6 -7 -2 -13 -11 -13
-19 0 -11 8 -14 32 -10 17 3 39 1 49 -5 33 -17 33 12 1 38 -46 35 -33 53 39
53 33 0 59 -4 59 -10 0 -6 -11 -8 -25 -4 -14 3 -25 2 -25 -3 0 -5 11 -16 25
-23 29 -16 34 -56 8 -63 -10 -2 -56 -4 -103 -3 l-85 1 -2 53 -2 52 40 0 c21 0
39 -5 39 -10z m220 -45 c0 -37 -4 -55 -12 -55 -9 0 -13 18 -13 55 0 37 4 55
13 55 8 0 12 -18 12 -55z m80 46 c0 -5 -9 -7 -20 -4 -28 7 -25 -11 5 -31 30
-20 32 -42 5 -56 -22 -12 -60 -5 -60 11 0 12 7 11 30 -1 34 -18 34 10 -1 39
-19 16 -29 32 -25 39 8 14 66 16 66 3z m144 -36 c20 -51 21 -58 8 -63 -5 -1
-12 6 -15 18 -7 27 -47 27 -54 0 -3 -11 -9 -18 -13 -15 -11 7 31 105 46 105 6
0 19 -20 28 -45z m108 20 c-3 -21 0 -25 18 -25 18 0 21 4 18 25 -5 24 -4 25
53 25 34 0 59 -4 59 -10 0 -6 -11 -8 -25 -4 -24 6 -25 4 -25 -40 0 -44 1 -45
25 -36 20 7 25 6 25 -5 0 -10 -11 -15 -35 -15 l-35 0 0 50 c0 29 -5 50 -11 50
-6 0 -9 -18 -8 -47 3 -37 0 -48 -11 -48 -10 0 -14 8 -12 23 3 17 -2 22 -17 22
-16 0 -21 -6 -21 -26 0 -50 -22 -18 -24 34 -1 42 2 52 15 52 12 0 15 -7 11
-25z m232 -8 c24 -58 28 -77 16 -77 -6 0 -14 8 -17 18 -13 35 -53 44 -53 13 0
-11 -5 -23 -11 -27 -9 -5 -10 1 -5 20 6 24 4 26 -24 26 -20 0 -29 4 -24 11 3
6 19 9 35 7 24 -4 31 0 35 19 9 33 31 28 48 -10z m62 -14 c-1 -44 1 -48 22
-45 12 2 22 -2 22 -7 0 -6 -16 -11 -35 -11 l-35 0 0 55 c0 39 4 55 13 55 9 0
13 -15 13 -47z m130 32 c9 -8 12 -19 9 -25 -3 -5 3 -10 14 -10 16 0 21 6 21
25 0 22 4 25 34 25 25 0 35 -5 39 -20 3 -11 10 -20 15 -20 6 0 14 9 17 20 3
11 11 20 16 20 6 0 1 -13 -11 -30 -12 -16 -20 -40 -18 -52 2 -15 -2 -23 -12
-23 -10 0 -14 8 -12 23 4 30 -27 80 -38 62 -4 -7 -5 -30 -3 -51 5 -32 2 -39
-11 -39 -10 0 -16 9 -16 25 0 19 -5 25 -21 25 -15 0 -19 -5 -17 -22 2 -11 -3
-23 -9 -25 -9 -3 -13 9 -14 39 -1 24 -1 46 0 51 0 4 -6 7 -15 7 -14 0 -16 -8
-11 -50 5 -40 3 -50 -8 -50 -11 0 -15 13 -15 51 0 41 -3 50 -15 46 -8 -4 -17
-2 -20 3 -10 17 85 12 101 -5z m300 -10 c1 -11 5 -28 9 -38 9 -21 -10 -47 -34
-47 -14 1 -14 2 2 11 23 14 22 39 -3 39 -15 0 -20 -7 -20 -25 0 -15 -6 -25
-14 -25 -11 0 -15 14 -15 56 l0 55 37 -3 c29 -2 37 -7 38 -23z m122 13 c20
-20 14 -65 -10 -82 -32 -23 -54 -20 -77 10 -19 25 -19 45 2 72 12 15 69 16 85
0z m101 -2 c19 -23 9 -67 -19 -85 -25 -15 -25 -15 -7 5 25 30 20 84 -9 84 -10
0 -14 -14 -14 -50 0 -34 -4 -50 -13 -50 -9 0 -13 16 -13 55 1 55 1 55 32 55
17 0 37 -6 43 -14z m46 -6 c3 -11 10 -20 15 -20 5 0 12 9 15 20 3 11 11 20 16
20 6 0 3 -10 -5 -22 -9 -12 -16 -37 -16 -55 0 -23 -5 -33 -15 -33 -10 0 -15
10 -15 30 0 17 -7 42 -16 55 -15 22 -15 25 -1 25 9 0 19 -9 22 -20z m132 -112
c-3 -8 -6 -5 -6 6 -1 11 2 17 5 13 3 -3 4 -12 1 -19z m-2339 -45 c-137 -2
-359 -2 -495 0 -137 1 -25 2 247 2 272 0 384 -1 248 -2z m1804 0 c-276 -2
-728 -2 -1005 0 -276 1 -50 2 503 2 553 0 779 -1 502 -2z"/>
<path d="M517 1093 c-15 -14 -6 -81 14 -107 23 -29 63 -35 73 -10 12 32 6 81
-14 102 -20 21 -59 29 -73 15z"/>
<path d="M1607 1093 c-4 -3 -7 -23 -7 -43 0 -64 54 -112 88 -78 19 19 14 73
-9 102 -19 24 -57 35 -72 19z"/>
<path d="M730 1081 c-14 -26 -13 -37 6 -77 29 -60 84 -53 84 11 0 63 -65 111
-90 66z"/>
<path d="M1401 1081 c-16 -30 -15 -31 40 -31 51 0 51 0 37 23 -20 30 -63 35
-77 8z"/>
<path d="M1820 1085 c-11 -13 -8 -15 14 -15 16 0 26 5 26 15 0 8 -6 15 -14 15
-7 0 -19 -7 -26 -15z"/>
<path d="M1800 1022 c0 -31 32 -68 49 -57 15 9 14 58 -1 73 -23 23 -48 14 -48
-16z"/>
<path d="M2327 1093 c-4 -3 -7 -15 -7 -25 0 -15 8 -18 45 -18 49 0 55 8 27 33
-19 17 -53 22 -65 10z"/>
<path d="M2507 1038 c-11 -34 29 -88 54 -72 13 8 11 58 -3 72 -16 16 -45 15
-51 0z"/>
<path d="M3446 1034 c-8 -21 15 -69 33 -69 24 0 36 31 23 59 -13 29 -46 35
-56 10z"/>
<path d="M3762 1088 c-25 -25 -13 -38 33 -38 49 0 55 8 27 33 -22 20 -43 22
-60 5z"/>
<path d="M632 800 c0 -14 2 -19 5 -12 2 6 2 18 0 25 -3 6 -5 1 -5 -13z"/>
<path d="M920 795 c0 -23 2 -25 21 -15 23 13 21 33 -4 38 -12 3 -17 -4 -17
-23z"/>
<path d="M1346 795 c-9 -23 -8 -25 9 -25 17 0 19 9 6 28 -7 11 -10 10 -15 -3z"/>
<path d="M1850 810 c0 -5 9 -14 20 -20 12 -6 25 -23 31 -37 8 -21 12 -24 22
-14 9 10 6 17 -15 35 -16 12 -28 27 -28 34 0 7 -7 12 -15 12 -8 0 -15 -4 -15
-10z"/>
<path d="M2216 785 c-4 -10 1 -15 14 -15 13 0 18 5 14 15 -4 8 -10 15 -14 15
-4 0 -10 -7 -14 -15z"/>
<path d="M2566 795 c-3 -9 0 -15 9 -15 9 0 12 6 9 15 -4 8 -7 15 -9 15 -2 0
-5 -7 -9 -15z"/>
<path d="M3050 805 c0 -10 7 -15 18 -13 21 4 19 22 -2 26 -10 2 -16 -3 -16
-13z"/>
<path d="M3145 810 c-11 -18 3 -58 24 -70 28 -14 47 12 35 48 -10 28 -47 42
-59 22z"/>
</g>
</svg>
